<?xml version="1.0" encoding="UTF-8"?>
<svg id="Camada_1" data-name="Camada 1" xmlns="http://www.w3.org/2000/svg" xmlns:xlink="http://www.w3.org/1999/xlink" viewBox="0 0 595.28 841.89">
  <defs>
    <style>
      .cls-1 {
        fill: url(#Gradiente_sem_nome_20-2);
      }

      .cls-2 {
        fill: url(#Gradiente_sem_nome_20-4);
      }

      .cls-3 {
        fill: url(#Gradiente_sem_nome_20-6);
      }

      .cls-4 {
        fill: url(#Gradiente_sem_nome_20-7);
      }

      .cls-5 {
        fill: #1d1d1b;
      }

      .cls-6 {
        fill: url(#Gradiente_sem_nome_40-3);
      }

      .cls-7 {
        fill: #154a9a;
      }

      .cls-8 {
        fill: url(#Gradiente_sem_nome_40-2);
      }

      .cls-9 {
        fill: url(#Gradiente_sem_nome_40);
      }

      .cls-10 {
        fill: url(#Gradiente_sem_nome_20-5);
      }

      .cls-11 {
        fill: url(#Gradiente_sem_nome_20-8);
      }

      .cls-12 {
        fill: url(#Gradiente_sem_nome_20-3);
      }

      .cls-13 {
        fill: url(#Gradiente_sem_nome_20);
      }

      .cls-14 {
        fill: url(#Gradiente_sem_nome_20-9);
      }
    </style>
    <linearGradient id="Gradiente_sem_nome_40" data-name="Gradiente sem nome 40" x1="253.61" y1="464.51" x2="376.53" y2="464.51" gradientUnits="userSpaceOnUse">
      <stop offset="0" stop-color="#d99d2d"/>
      <stop offset="1" stop-color="#f9b76a"/>
    </linearGradient>
    <linearGradient id="Gradiente_sem_nome_40-2" data-name="Gradiente sem nome 40" x1="399.56" y1="405.36" x2="428.72" y2="405.36" xlink:href="#Gradiente_sem_nome_40"/>
    <linearGradient id="Gradiente_sem_nome_40-3" data-name="Gradiente sem nome 40" x1="292.65" y1="376.84" x2="377.16" y2="376.84" xlink:href="#Gradiente_sem_nome_40"/>
    <linearGradient id="Gradiente_sem_nome_20" data-name="Gradiente sem nome 20" x1="260.7" y1="281.27" x2="321.71" y2="281.27" gradientUnits="userSpaceOnUse">
      <stop offset="0" stop-color="#2f6eb5"/>
      <stop offset=".43" stop-color="#3066ae"/>
      <stop offset=".84" stop-color="#3259a4"/>
    </linearGradient>
    <linearGradient id="Gradiente_sem_nome_20-2" data-name="Gradiente sem nome 20" x1="170.17" y1="327.03" x2="285.63" y2="327.03" xlink:href="#Gradiente_sem_nome_20"/>
    <linearGradient id="Gradiente_sem_nome_20-3" data-name="Gradiente sem nome 20" x1="196.83" y1="293.67" x2="271.19" y2="293.67" xlink:href="#Gradiente_sem_nome_20"/>
    <linearGradient id="Gradiente_sem_nome_20-4" data-name="Gradiente sem nome 20" x1="134.77" y1="362.63" x2="154.1" y2="362.63" xlink:href="#Gradiente_sem_nome_20"/>
    <linearGradient id="Gradiente_sem_nome_20-5" data-name="Gradiente sem nome 20" x1="82.92" y1="585.34" x2="535.63" y2="585.34" xlink:href="#Gradiente_sem_nome_20"/>
    <linearGradient id="Gradiente_sem_nome_20-6" data-name="Gradiente sem nome 20" x1="172.11" y1="489.38" x2="189.89" y2="489.38" xlink:href="#Gradiente_sem_nome_20"/>
    <linearGradient id="Gradiente_sem_nome_20-7" data-name="Gradiente sem nome 20" x1="153.62" y1="451.56" x2="170.84" y2="451.56" xlink:href="#Gradiente_sem_nome_20"/>
    <linearGradient id="Gradiente_sem_nome_20-8" data-name="Gradiente sem nome 20" x1="145.85" y1="323.92" x2="159.45" y2="323.92" xlink:href="#Gradiente_sem_nome_20"/>
    <linearGradient id="Gradiente_sem_nome_20-9" data-name="Gradiente sem nome 20" x1="209.14" y1="382.63" x2="396.57" y2="382.63" xlink:href="#Gradiente_sem_nome_20"/>
  </defs>
  <path class="cls-7" d="M212.38,367.12c-2.75,6.4-6.38,11.61-13.93,12.16-3.16.23-5.58-.51-8.54-.69l-18.82,24.93c-1.77,3.88,1.54,7.47-2.09,11.86-9.14,11.05-22.78-6.31-12.45-13.06,3.82-2.5,6.81-.9,10.62-.89l19.19-25.17c-2.52-3.76-4.52-6.44-4.65-11.24-.53-18.94,26.92-21.34,29.87-2.85,6.46.65,13.51-.92,19.54,1.86,40.07-32.64,89.6-47.92,118-93.81,1.71-2.76,7.63-12.61,7.9-15.18.12-1.13-.66-1.06-1.56-1.23-8.52-1.61-18.99,1.28-27.74-.81-1.75-.42-2.08-1.24-.98-2.74l73.17-50.67c1-.01,1.58,1,1.85,1.83.46,1.43.97,4.74,1.34,6.55,3.79,18.79,6.93,39.75,9.78,58.8.41,2.72,2.56,15.2,1.62,16.62-.44.66-1,.77-1.74.5l-17.69-18.13-1.52-.6c-4.77,32.72-26.25,59.82-50.69,80.69-24.83,21.2-76.81,49.94-89.78,78.93-11.81,26.39-7.97,55.22,13.31,75.25,2.07,1.95,8.29,5.99,9.46,7.53,2.24,2.94-3.12,3.44-5.2,3.43-36.38-.1-74.15-24.45-79.11-62.33-3.77-28.76,11.32-57.04,31.16-76.7,1.49-1.47,4.33-2.48,4.57-4.84h-14.87Z"/>
  <path class="cls-9" d="M366.82,421.13v29.43c0,.06-.85.91-.91.91h-96.19c-.24,4.9,2.13,11.22,4.89,15.31,1.78,2.64,9.11,7.67,12.09,8.68.68.23,4.9,1.5,5.17,1.5h84.66v31.56h-77.37c-.81,0-8.55-2.29-9.95-2.8-28.28-10.21-43.99-45.49-30.96-73.31,1.45-3.1,6.6-11.48,9.93-11.92h95.34s3.31.64,3.31.64Z"/>
  <polygon class="cls-8" points="428.72 302.19 428.72 508.52 400.2 508.52 399.56 505.21 399.56 309.75 400.8 302.19 428.72 302.19"/>
  <path class="cls-6" d="M376.53,361.66l.63,23.39-.98,5.81-83.39,1.14c-.59-3.21.73-1.96,2.11-3.02,12.02-9.22,24.54-17.82,36.42-27.32h45.21Z"/>
  <path class="cls-13" d="M286.5,258.71c2.06,2.34,2.41,5.57,3.62,8.32,5.02-.72,12.19.86,16.91-.05,1.96-.38,3.4-3.67,6.61-3.59,6.82.16,10.63,7.96,6.1,13.27-2.2,2.58-6.07,2.23-6.33,2.47-.57.54.74,11.85-1.08,15.6-1.09,2.24-4.1,3.46-4.68,4.42-1.36,2.27,1.17,4.94-3.38,8.15-7.72,5.45-15.52-6.88-7.45-11.7,4.15-2.48,9.98,2.19,11.61-3.57.4-1.41.43-12.79.12-14.42-.07-.38-2.77-4.73-3.01-4.88-.69-.43-14.32-.56-15.39-.2s-1.92,3.28-2.83,4.45c-10.28,13.32-31.04,2.93-25.78-13.04,3.42-10.42,17.47-13.78,24.97-5.26Z"/>
  <path class="cls-1" d="M284.1,322.64c-1.31,1.41-4.09,1.53-5.59,2.6-2.53,1.79-2.37,5.38-6.92,6.43-5,1.15-19.52-.96-22.51.55-1.06.54-2.01,4.78-3.22,6.19-3.17,3.71-10.18,4.94-14.62,3.16-3.77-1.51-5.21-6.79-7.36-7.21h-36.99c-2.62.52-2.64,6.41-8.5,6.7-10.56.52-10.52-13.8-2.41-15.18,4.35-.74,7.05.54,9.19,4.25,12.48,1.25,25.39.35,38.01.47,1.72-.58,1.45-3.69,2.09-5.2,3.86-9.17,16.2-10.38,21.66-1.96.89,1.37,1.22,4.28,2.55,4.73,1.56.53,16.22.28,18.56-.06,1.79-.26,6.14-1.96,6.47-3.87.24-1.42-4.57-4.64-1.15-9.62,2-2.91,4.79-3.32,8.16-2.7,4.5.83,5.2,7.87,2.57,10.7Z"/>
  <path class="cls-12" d="M257.58,300.37c-1.16-1.26-30.18,1.37-34.27-.61-1.87.17-2.65,2.69-3.81,3.66-7.8,6.5-20.77,2.8-22.45-7.74-2.9-18.15,23.9-22.29,26.3-4.42.21,1.59-.5,4.14.23,4.59l33.74.31c3.58-1.77,6.49-4.06,10.56-1.52,7.52,4.69.98,16.44-7.08,11.93-3.64-2.04-2.96-5.91-3.21-6.19Z"/>
  <path class="cls-2" d="M137.65,355.81c9.13-9.39,22.8,5.3,13.16,14.07-9.07,8.25-21.81-5.17-13.16-14.07Z"/>
  <path class="cls-10" d="M99.3,603.36h40.05v13.96h-56.44v-86.17h55.22v14.56h-39.45c-.23.65.61,1.33.61,1.52v19.12h34.59v13.96h-35.2c-.16.44.61.73.61.91v22.15ZM241.58,618.56c-39.05-2.87-37.5-62.32-1.63-66.61,50.31-6.01,51.34,70.26,1.63,66.61ZM242.37,565.29c-17.01,2.48-17.88,34.71-2.29,39.6,27.04,8.49,30.35-43.69,2.29-39.6ZM520.46,553.6l-16.08,44.91-16.39-44.91h-16.08l23.64,63.51c-1.48,9.37-9.81,13.88-18.75,10.55-.55.38-1.53,12.69-1.17,13.25,12.68,4.53,24.91-.11,31.58-11.65,11.99-20.75,17.38-51.23,28.12-73.22l.3-2.43h-15.17ZM351.15,600.33l-17.3-46.73h-15.47l25.16,63.76c2.79-.54,15.79.83,17.02-.65l23.97-63.11h-16.38l-16.99,46.73ZM178.19,599.12l-17.29-45.51h-16.08l24.25,63.44c2.59.18,16.27.95,17.33-.32l22.75-63.12h-15.78l-15.18,45.51ZM436.1,553.6h-10.32v11.83c0,2.05,8.52.31,9.43.45.27.04.88.66.88.76v50.67h15.78v-50.98h14.26c.1,0,.72-.62.76-.88-.92-3.9-.56-8,.15-11.86h-15.78c.24-9.42.85-14.29,11.76-13.27,1.4.13,5.83,1.78,6.51.79.37-.54,1.45-10.7,1.09-11.12-18.48-6.01-36.99,1.93-34.53,23.61ZM305.93,529.94h-13.96c-.06,0-.91.85-.91.91v86.48h15.78v-86.48c0-.06-.85-.91-.91-.91ZM398.48,617.32h15.17v-63.72h-15.17v63.72ZM403.79,529.47c-9.48,1.5-9.66,15.71-.17,16.86,15.28,1.85,13.85-19.02.17-16.86Z"/>
  <path class="cls-3" d="M175.25,496.19c-8.28-6.87,1.43-20.86,11.03-13.76,9.65,7.15-2.09,21.18-11.03,13.76Z"/>
  <path class="cls-4" d="M160.95,443.11c11.16-1.61,13.43,14.75,3.95,16.72-13.1,2.72-15.29-15.09-3.95-16.72Z"/>
  <path class="cls-11" d="M157.85,328.68c-4.13,4.17-11.74,1.59-11.99-4.33-.41-9.6,12.32-8.66,13.4-3.04.42,2.17.24,5.7-1.41,7.36Z"/>
  <path class="cls-14" d="M240.63,504.26s-23-23-2.67-59.82c1.03-1.86,7.29-13.47,21.82-28.26,21.83-22.21,26.04-26.43,45.96-40.6,19.91-14.17,53.23-37.15,69.32-59.74,16.09-22.6,21.45-50.17,21.45-50.17,0,0,1.15-7.66-5.74-5.74s-10.72,28.72-43.28,53.62-54.83,35.95-87.7,58.6c-25.76,17.75-45.96,39.83-49.79,65.11-3.83,25.28,5.74,49.02,20.3,60.89s10.34,6.13,10.34,6.13Z"/>
  <g>
    <path class="cls-5" d="M146.88,639.43l6.62,14.19h-1.53l-2.23-4.67h-6.11l-2.21,4.67h-1.58l6.7-14.19h.35ZM146.7,642.44l-2.43,5.14h4.85l-2.42-5.14Z"/>
    <path class="cls-5" d="M155.49,639.43h1.42v14.19h-1.42v-14.19Z"/>
    <path class="cls-5" d="M171.43,639.43l6.62,14.19h-1.53l-2.23-4.67h-6.11l-2.21,4.67h-1.58l6.7-14.19h.35ZM171.25,642.44l-2.43,5.14h4.85l-2.42-5.14Z"/>
    <path class="cls-5" d="M179.85,643.12h1.35v4.9c0,1.2.06,2.02.19,2.47.19.64.56,1.15,1.11,1.52.54.37,1.19.56,1.95.56s1.39-.18,1.92-.54c.52-.36.89-.84,1.09-1.43.14-.41.2-1.26.2-2.58v-4.9h1.38v5.15c0,1.45-.17,2.54-.51,3.27-.34.73-.85,1.31-1.52,1.72-.68.42-1.53.62-2.55.62s-1.88-.21-2.56-.62c-.69-.41-1.2-.99-1.53-1.74-.34-.74-.51-1.86-.51-3.35v-5.05Z"/>
    <path class="cls-5" d="M193.2,639.23h1.35v3.9h2.14v1.17h-2.14v9.33h-1.35v-9.33h-1.84v-1.17h1.84v-3.9Z"/>
    <path class="cls-5" d="M203.69,642.85c1.62,0,2.96.58,4.02,1.75.97,1.07,1.45,2.33,1.45,3.79s-.51,2.75-1.53,3.84c-1.02,1.1-2.33,1.64-3.94,1.64s-2.93-.55-3.95-1.64c-1.02-1.1-1.53-2.38-1.53-3.84s.48-2.71,1.45-3.78c1.06-1.18,2.41-1.76,4.03-1.76ZM203.68,644.17c-1.12,0-2.09.41-2.89,1.24-.81.83-1.21,1.83-1.21,3.01,0,.76.18,1.47.55,2.12.37.66.86,1.16,1.49,1.52.63.36,1.31.54,2.06.54s1.44-.18,2.06-.54c.63-.36,1.12-.86,1.49-1.52.37-.66.55-1.36.55-2.12,0-1.18-.4-2.18-1.21-3.01-.81-.83-1.77-1.24-2.89-1.24Z"/>
    <path class="cls-5" d="M211.65,643.12h1.35v1.81c.47-.67.95-1.16,1.45-1.47.68-.41,1.4-.62,2.15-.62.51,0,.99.1,1.45.3s.83.46,1.12.8c.29.33.54.8.75,1.42.45-.82,1.01-1.45,1.68-1.88.67-.43,1.4-.64,2.17-.64.73,0,1.36.18,1.92.55.55.37.97.88,1.24,1.53s.4,1.64.4,2.95v5.73h-1.38v-5.73c0-1.12-.08-1.9-.24-2.32s-.43-.76-.82-1.02c-.39-.26-.85-.39-1.39-.39-.65,0-1.25.19-1.79.58-.54.39-.94.9-1.19,1.54-.25.64-.38,1.72-.38,3.22v4.11h-1.35v-5.37c0-1.27-.08-2.13-.24-2.58-.16-.45-.43-.82-.82-1.09-.39-.27-.86-.41-1.4-.41-.62,0-1.21.19-1.75.56-.54.38-.95.88-1.21,1.52-.26.64-.39,1.61-.39,2.92v4.45h-1.35v-10.49Z"/>
    <path class="cls-5" d="M240.64,643.12v10.49h-1.33v-1.8c-.57.69-1.2,1.21-1.9,1.55-.7.35-1.47.52-2.31.52-1.49,0-2.75-.54-3.81-1.62s-1.58-2.39-1.58-3.93.53-2.8,1.59-3.88,2.34-1.61,3.83-1.61c.86,0,1.64.18,2.34.55.7.37,1.31.92,1.84,1.65v-1.93h1.33ZM235.24,644.16c-.75,0-1.44.18-2.08.55-.64.37-1.14.89-1.52,1.56-.38.67-.56,1.37-.56,2.12s.19,1.45.57,2.12c.38.67.89,1.2,1.53,1.58.64.38,1.32.56,2.06.56s1.44-.19,2.1-.56c.66-.37,1.17-.88,1.53-1.51.36-.64.53-1.35.53-2.15,0-1.21-.4-2.23-1.2-3.04-.8-.82-1.78-1.22-2.95-1.22Z"/>
    <path class="cls-5" d="M244.85,639.23h1.35v3.9h2.14v1.17h-2.14v9.33h-1.35v-9.33h-1.84v-1.17h1.84v-3.9Z"/>
    <path class="cls-5" d="M250.84,638.8c.31,0,.57.11.79.33.22.22.33.48.33.79s-.11.56-.33.78c-.22.22-.48.33-.79.33s-.56-.11-.78-.33c-.22-.22-.33-.48-.33-.78s.11-.57.33-.79c.22-.22.48-.33.78-.33ZM250.17,643.12h1.35v10.49h-1.35v-10.49Z"/>
    <path class="cls-5" d="M259.29,642.85c1.62,0,2.96.58,4.02,1.75.97,1.07,1.45,2.33,1.45,3.79s-.51,2.75-1.53,3.84c-1.02,1.1-2.33,1.64-3.94,1.64s-2.93-.55-3.95-1.64c-1.02-1.1-1.53-2.38-1.53-3.84s.48-2.71,1.45-3.78c1.06-1.18,2.41-1.76,4.03-1.76ZM259.29,644.17c-1.12,0-2.09.41-2.89,1.24-.81.83-1.21,1.83-1.21,3.01,0,.76.18,1.47.55,2.12.37.66.86,1.16,1.49,1.52.63.36,1.31.54,2.06.54s1.44-.18,2.06-.54c.63-.36,1.12-.86,1.49-1.52.37-.66.55-1.36.55-2.12,0-1.18-.4-2.18-1.21-3.01-.81-.83-1.77-1.24-2.89-1.24Z"/>
    <path class="cls-5" d="M267.26,643.12h1.35v1.88c.54-.72,1.14-1.26,1.79-1.62.66-.36,1.37-.54,2.14-.54s1.48.2,2.09.6c.61.4,1.06.94,1.35,1.61.29.68.43,1.73.43,3.15v5.4h-1.35v-5.01c0-1.21-.05-2.02-.15-2.42-.16-.69-.46-1.22-.9-1.57-.44-.35-1.02-.53-1.74-.53-.82,0-1.55.27-2.19.81-.65.54-1.07,1.21-1.28,2.01-.13.52-.19,1.47-.19,2.85v3.85h-1.35v-10.49Z"/>
    <path class="cls-5" d="M295.73,648.37l.96,1.02c-.62.55-1.2,1.02-1.76,1.42.39.36.89.84,1.51,1.46.49.49.91.94,1.26,1.35h-1.98l-1.88-1.94c-1.18.95-2.14,1.57-2.88,1.86-.74.29-1.52.43-2.34.43-1.09,0-1.97-.31-2.63-.94-.66-.63-.99-1.41-.99-2.35,0-.71.22-1.42.67-2.13.45-.71,1.36-1.61,2.73-2.7-.78-.94-1.28-1.63-1.5-2.08-.22-.45-.33-.87-.33-1.28,0-.71.27-1.29.82-1.75.63-.54,1.41-.81,2.35-.81.59,0,1.13.12,1.62.36.49.24.86.56,1.12.96.26.4.39.83.39,1.28,0,.48-.17.98-.5,1.52s-.99,1.22-1.98,2.06l2.15,2.26,1.41,1.43c.76-.56,1.35-1.03,1.79-1.43ZM289.34,646.93c-1.21.91-2,1.63-2.37,2.17-.37.54-.56,1.03-.56,1.49,0,.54.23,1.02.69,1.43s1.02.62,1.68.62c.5,0,1-.1,1.48-.31.76-.33,1.63-.88,2.61-1.67l-2.24-2.31c-.39-.4-.82-.88-1.29-1.43ZM289.51,645.05c.69-.53,1.21-1.06,1.56-1.57.24-.37.37-.69.37-.97,0-.33-.16-.61-.48-.85-.32-.24-.74-.36-1.27-.36s-.91.12-1.23.37-.47.53-.47.87c0,.26.06.5.19.72.32.55.76,1.14,1.34,1.79Z"/>
    <path class="cls-5" d="M304.34,639.43h1.54l4.7,10.96,4.78-10.96h1.54l-6.17,14.19h-.31l-6.09-14.19Z"/>
    <path class="cls-5" d="M319.53,638.8c.31,0,.57.11.79.33s.33.48.33.79-.11.56-.33.78-.48.33-.79.33-.56-.11-.78-.33-.33-.48-.33-.78.11-.57.33-.79.48-.33.78-.33ZM318.86,643.12h1.35v10.49h-1.35v-10.49Z"/>
    <path class="cls-5" d="M322.51,643.12h1.38v1.53c.41-.6.84-1.06,1.3-1.35s.93-.45,1.43-.45c.37,0,.77.12,1.2.36l-.7,1.14c-.28-.12-.52-.18-.71-.18-.45,0-.88.18-1.3.55-.42.37-.74.94-.96,1.72-.17.6-.25,1.81-.25,3.63v3.55h-1.38v-10.49Z"/>
    <path class="cls-5" d="M330.14,639.23h1.35v3.9h2.14v1.17h-2.14v9.33h-1.35v-9.33h-1.84v-1.17h1.84v-3.9Z"/>
    <path class="cls-5" d="M335.48,643.12h1.35v4.9c0,1.2.06,2.02.19,2.47.19.64.56,1.15,1.11,1.52.54.37,1.19.56,1.95.56s1.39-.18,1.92-.54c.52-.36.89-.84,1.09-1.43.13-.41.2-1.26.2-2.58v-4.9h1.38v5.15c0,1.45-.17,2.54-.51,3.27-.34.73-.85,1.31-1.52,1.72-.68.42-1.53.62-2.55.62s-1.88-.21-2.56-.62c-.68-.41-1.2-.99-1.53-1.74-.34-.74-.51-1.86-.51-3.35v-5.05Z"/>
    <path class="cls-5" d="M358.12,643.12v10.49h-1.33v-1.8c-.57.69-1.2,1.21-1.9,1.55-.7.35-1.47.52-2.31.52-1.49,0-2.75-.54-3.8-1.62-1.05-1.08-1.58-2.39-1.58-3.93s.53-2.8,1.59-3.88c1.06-1.07,2.34-1.61,3.83-1.61.86,0,1.64.18,2.34.55.7.37,1.31.92,1.84,1.65v-1.93h1.33ZM352.72,644.16c-.75,0-1.45.18-2.08.55s-1.14.89-1.52,1.56c-.38.67-.56,1.37-.56,2.12s.19,1.45.57,2.12c.38.67.89,1.2,1.53,1.58.64.38,1.32.56,2.06.56s1.44-.19,2.1-.56c.66-.37,1.17-.88,1.53-1.51.36-.64.53-1.35.53-2.15,0-1.21-.4-2.23-1.2-3.04s-1.78-1.22-2.95-1.22Z"/>
    <path class="cls-5" d="M360.96,639.07h1.35v14.54h-1.35v-14.54Z"/>
    <path class="cls-5" d="M369.34,650.97l1.21-.72c.85,1.56,1.83,2.34,2.94,2.34.48,0,.92-.11,1.34-.33.42-.22.74-.52.95-.89s.33-.77.33-1.19c0-.48-.16-.94-.48-1.4-.44-.63-1.25-1.39-2.43-2.28-1.18-.89-1.92-1.54-2.21-1.94-.5-.67-.75-1.39-.75-2.17,0-.62.15-1.18.44-1.69.29-.51.71-.91,1.25-1.2.54-.29,1.12-.44,1.75-.44.67,0,1.29.17,1.88.5.58.33,1.2.94,1.85,1.83l-1.16.88c-.53-.71-.99-1.17-1.36-1.4-.38-.23-.79-.34-1.23-.34-.57,0-1.04.17-1.4.52-.36.35-.55.78-.55,1.28,0,.31.06.61.19.9.13.29.36.6.7.95.19.18.8.65,1.83,1.42,1.23.91,2.07,1.71,2.53,2.42.46.71.69,1.42.69,2.13,0,1.03-.39,1.92-1.17,2.68s-1.73,1.14-2.85,1.14c-.86,0-1.64-.23-2.34-.69-.7-.46-1.35-1.23-1.94-2.31Z"/>
    <path class="cls-5" d="M385.39,642.85c1.62,0,2.96.58,4.02,1.75.97,1.07,1.45,2.33,1.45,3.79s-.51,2.75-1.53,3.84c-1.02,1.1-2.33,1.64-3.94,1.64s-2.93-.55-3.95-1.64c-1.02-1.1-1.53-2.38-1.53-3.84s.48-2.71,1.45-3.78c1.06-1.18,2.41-1.76,4.03-1.76ZM385.38,644.17c-1.12,0-2.09.41-2.89,1.24-.81.83-1.21,1.83-1.21,3.01,0,.76.18,1.47.55,2.12.37.66.86,1.16,1.49,1.52.63.36,1.31.54,2.06.54s1.44-.18,2.06-.54c.62-.36,1.12-.86,1.49-1.52.37-.66.55-1.36.55-2.12,0-1.18-.41-2.18-1.21-3.01-.81-.83-1.77-1.24-2.89-1.24Z"/>
    <path class="cls-5" d="M393.15,639.07h1.35v14.54h-1.35v-14.54Z"/>
    <path class="cls-5" d="M397.13,643.12h1.35v4.9c0,1.2.06,2.02.19,2.47.19.64.56,1.15,1.11,1.52.54.37,1.19.56,1.95.56s1.39-.18,1.92-.54c.52-.36.89-.84,1.09-1.43.13-.41.2-1.26.2-2.58v-4.9h1.38v5.15c0,1.45-.17,2.54-.51,3.27-.34.73-.85,1.31-1.52,1.72-.68.42-1.53.62-2.55.62s-1.88-.21-2.56-.62c-.68-.41-1.2-.99-1.53-1.74-.34-.74-.51-1.86-.51-3.35v-5.05Z"/>
    <path class="cls-5" d="M410.49,639.23h1.35v3.9h2.14v1.17h-2.14v9.33h-1.35v-9.33h-1.84v-1.17h1.84v-3.9Z"/>
    <path class="cls-5" d="M416.48,638.8c.31,0,.57.11.79.33s.33.48.33.79-.11.56-.33.78-.48.33-.79.33-.56-.11-.78-.33-.33-.48-.33-.78.11-.57.33-.79.48-.33.78-.33ZM415.81,643.12h1.35v10.49h-1.35v-10.49Z"/>
    <path class="cls-5" d="M424.93,642.85c1.62,0,2.96.58,4.02,1.75.97,1.07,1.45,2.33,1.45,3.79s-.51,2.75-1.53,3.84c-1.02,1.1-2.33,1.64-3.94,1.64s-2.93-.55-3.95-1.64c-1.02-1.1-1.53-2.38-1.53-3.84s.48-2.71,1.45-3.78c1.06-1.18,2.41-1.76,4.03-1.76ZM424.93,644.17c-1.12,0-2.09.41-2.89,1.24-.81.83-1.21,1.83-1.21,3.01,0,.76.18,1.47.55,2.12.37.66.86,1.16,1.49,1.52.63.36,1.31.54,2.06.54s1.44-.18,2.06-.54c.62-.36,1.12-.86,1.49-1.52.37-.66.55-1.36.55-2.12,0-1.18-.41-2.18-1.21-3.01-.81-.83-1.77-1.24-2.89-1.24Z"/>
    <path class="cls-5" d="M432.9,643.12h1.35v1.88c.54-.72,1.14-1.26,1.79-1.62.66-.36,1.37-.54,2.14-.54s1.48.2,2.09.6c.61.4,1.06.94,1.34,1.61.29.68.43,1.73.43,3.15v5.4h-1.35v-5.01c0-1.21-.05-2.02-.15-2.42-.16-.69-.46-1.22-.9-1.57-.44-.35-1.02-.53-1.74-.53-.82,0-1.55.27-2.19.81s-1.07,1.21-1.28,2.01c-.13.52-.19,1.47-.19,2.85v3.85h-1.35v-10.49Z"/>
    <path class="cls-5" d="M450.22,644.27l-.87.9c-.72-.7-1.43-1.05-2.12-1.05-.44,0-.81.15-1.13.43s-.47.63-.47,1.01c0,.34.13.67.39.97.26.32.8.69,1.62,1.11,1,.52,1.69,1.02,2.05,1.5.35.49.53,1.04.53,1.65,0,.86-.3,1.59-.91,2.19s-1.36.9-2.27.9c-.61,0-1.18-.13-1.73-.4s-1.01-.63-1.37-1.09l.85-.96c.69.78,1.42,1.17,2.19,1.17.54,0,1-.17,1.38-.52.38-.35.57-.76.57-1.23,0-.39-.13-.73-.38-1.03-.25-.29-.82-.67-1.7-1.12-.95-.49-1.59-.97-1.93-1.45-.34-.48-.51-1.02-.51-1.63,0-.8.27-1.46.82-1.99.54-.53,1.23-.79,2.06-.79.97,0,1.94.47,2.92,1.42Z"/>
  </g>
</svg>